<svg xmlns="http://www.w3.org/2000/svg" width="44" height="48" viewBox="0 0 44 48"><path fill="#FFFFE1" stroke="#fc0" stroke-miterlimit="10" d="M34.5.5h-25c-4.97 0-9 4.03-9 9v22c0 4.97 4.03 9 9 9h17c0 3.32 2.63 6.5 6.5 6.5 0 0-1.5-2.08-1.5-6.5h3c4.97 0 9-4.03 9-9v-22c0-4.97-4.03-9-9-9z"/><path fill="#fc0" d="M10.367 30.249v-3.146c1.222-.33 2.146-.792 2.773-1.387.627-.594 1.135-1.354 1.522-2.278s.582-2.039.582-3.343c-1.585 0-2.748-.445-3.491-1.337s-1.114-1.841-1.114-2.848c0-1.172.417-2.158 1.25-2.959.834-.801 1.796-1.201 2.885-1.201 1.42 0 2.646.611 3.678 1.833 1.031 1.223 1.548 2.897 1.548 5.027 0 1.865-.405 3.623-1.214 5.274-.809 1.65-1.911 3.062-3.306 4.234-1.395 1.173-3.099 1.883-5.113 2.131zM23.367 30.249v-3.146c1.222-.33 2.146-.791 2.773-1.387.627-.594 1.135-1.354 1.522-2.277.388-.924.582-2.04.582-3.343-1.585 0-2.748-.446-3.491-1.337-.743-.891-1.114-1.84-1.114-2.847 0-1.172.417-2.158 1.25-2.959.834-.8 1.796-1.201 2.885-1.201 1.42 0 2.646.611 3.678 1.833 1.031 1.22 1.548 2.895 1.548 5.025 0 1.865-.405 3.623-1.214 5.274-.809 1.65-1.911 3.062-3.306 4.234-1.395 1.172-3.099 1.883-5.113 2.131z"/></svg>