<?xml version="1.0" encoding="utf-8"?>
<!-- Generator: Adobe Illustrator 16.0.0, SVG Export Plug-In . SVG Version: 6.00 Build 0)  -->
<!DOCTYPE svg PUBLIC "-//W3C//DTD SVG 1.1//EN" "http://www.w3.org/Graphics/SVG/1.1/DTD/svg11.dtd">
<svg version="1.1" id="Layer_1" xmlns="http://www.w3.org/2000/svg" xmlns:xlink="http://www.w3.org/1999/xlink" x="0px" y="0px"
	 width="44px" height="48px" viewBox="0 0 44 48" enable-background="new 0 0 44 48" xml:space="preserve">
<path fill="#FFFFE1" stroke="#FFCC00" stroke-miterlimit="10" d="M34.5,0.5h-25c-4.97,0-9,4.03-9,9v22c0,4.97,4.03,9,9,9h17
	c0,3.32,2.63,6.5,6.5,6.5c0,0-1.5-2.08-1.5-6.5h3c4.97,0,9-4.03,9-9v-22C43.5,4.53,39.47,0.5,34.5,0.5z"/>
<path fill="#FFCC00" d="M10.367,30.249v-3.146c1.222-0.33,2.146-0.792,2.773-1.387c0.627-0.594,1.135-1.354,1.522-2.278
	s0.582-2.039,0.582-3.343c-1.585,0-2.748-0.445-3.491-1.337s-1.114-1.841-1.114-2.848c0-1.172,0.417-2.158,1.25-2.959
	c0.834-0.801,1.796-1.201,2.885-1.201c1.42,0,2.646,0.611,3.678,1.833C19.483,14.806,20,16.48,20,18.61
	c0,1.865-0.405,3.623-1.214,5.274c-0.809,1.65-1.911,3.062-3.306,4.234C14.085,29.291,12.381,30.001,10.367,30.249z"/>
<path fill="#FFCC00" d="M23.367,30.249v-3.146c1.222-0.33,2.146-0.791,2.773-1.387c0.627-0.594,1.135-1.354,1.522-2.277
	c0.388-0.924,0.582-2.04,0.582-3.343c-1.585,0-2.748-0.446-3.491-1.337c-0.743-0.891-1.114-1.84-1.114-2.847
	c0-1.172,0.417-2.158,1.25-2.959c0.834-0.8,1.796-1.201,2.885-1.201c1.42,0,2.646,0.611,3.678,1.833
	C32.483,14.805,33,16.48,33,18.61c0,1.865-0.405,3.623-1.214,5.274c-0.809,1.65-1.911,3.062-3.306,4.234
	C27.085,29.29,25.381,30.001,23.367,30.249z"/>
</svg>
